# xmcd CD database file
#
# Track frame offsets:
#	150
#	17478
#	33748
#	57366
#	83121
#	99306
#	110782
#	137026
#	151961
#	162007
#	182533
#	196970
#	214188
#	229955
#	244557
#
# Disc length: 3447 seconds
#
# Revision: 0
# Processed by: cddbd v1.5.2PL0 Copyright (c) Steve Scherf et al.
# Submitted via: CDex 1.77
#
DISCID=c20d750f
DTITLE=Kristina Tajsic and Christoph Hegi - Voice meets Piano and more
DYEAR=2008
DGENRE=Jazz
TTITLE0=Everybody Loves Somebody
TTITLE1=Hit That Jive, Jack!
TTITLE2=Moon River
TTITLE3=I Waited A Little Too Long
TTITLE4=We Save The Bones For Henry Jones
TTITLE5=Everybody Loves A Lover
TTITLE6=Over The Rainbow
TTITLE7=I'll Never Say Never Again
TTITLE8=Pillow Talk
TTITLE9=Cry Me A River
TTITLE10=Diamonds Are A Girl's Best Friend
TTITLE11=I Love Paris
TTITLE12=Too Little, Too Late
TTITLE13=Don't Try
TTITLE14=Suitcase Blues
EXTD=YEAR: 2008
EXTT0=
EXTT1=
EXTT2=
EXTT3=
EXTT4=
EXTT5=
EXTT6=
EXTT7=
EXTT8=
EXTT9=
EXTT10=
EXTT11=
EXTT12=
EXTT13=
EXTT14=
PLAYORDER=
